<svg xmlns="http://www.w3.org/2000/svg" viewBox="0 0 200 200" role="img" aria-label="Female avatar">
  <defs>
    <clipPath id="clip"><circle cx="100" cy="100" r="96"/></clipPath>
    <linearGradient id="shirt" x1="0" y1="0" x2="1" y2="1">
      <stop offset="0" stop-color="#60a5fa"/><stop offset="1" stop-color="#38bdf8"/>
    </linearGradient>
  </defs>
  <circle cx="100" cy="100" r="96" fill="#16203a"/>
  <g clip-path="url(#clip)">
    <path d="M100 42c-28 0-46 20-46 48v44c0 12 9 18 20 18h52c11 0 20-6 20-18V90c0-28-18-48-46-48z" fill="#33283e"/>
    <path d="M100 132c-40 0-64 24-68 54v16h136v-16c-4-30-28-54-68-54z" fill="url(#shirt)"/>
    <path d="M88 108h24v28a12 12 0 0 1-24 0z" fill="#d9a679"/>
    <circle cx="100" cy="86" r="33" fill="#e8b98c"/>
    <path d="M67 84a33 33 0 0 1 66 0l-2 4c-8-8-19-12-31-12s-23 4-31 12z" fill="#33283e"/>
    <path d="M67 86c-4 14-4 26 0 36l8-4V96zM133 86c4 14 4 26 0 36l-8-4V96z" fill="#33283e"/>
    <circle cx="89" cy="90" r="3.4" fill="#1c2434"/>
    <circle cx="111" cy="90" r="3.4" fill="#1c2434"/>
    <path d="M92 104q8 6 16 0" stroke="#1c2434" stroke-width="3.2" fill="none" stroke-linecap="round"/>
  </g>
  <circle cx="100" cy="100" r="94.5" fill="none" stroke="rgba(255,255,255,.12)" stroke-width="3"/>
</svg>
